Coordinates
version=1
nRows=49
nColumns=12
inDegrees=yes

Units are S.I. units (second, meters, Newtons, ...)
Angles are in degrees

endheader
time	SC_y	SC_z	SC_x	AC_y	AC_z	AC_x	GH_y	GH_z	GH_yy	EL_x	PS_y
       0.0              -28.75          32.91          57.05          63.94         -12.85          3.571          37.35          59.91         -10.33          108.5          41.12
   0.03694              -28.75          32.91          57.05          63.94         -12.85          3.569          37.32           59.9         -10.34          108.5          41.13
   0.07388              -28.75          32.91          57.04          63.93         -12.85          3.567           37.3           59.9         -10.35          108.5          41.15
    0.1108              -28.76          32.91          57.04          63.93         -12.85          3.566          37.27          59.89         -10.36          108.5          41.16
    0.1478              -28.76          32.91          57.04          63.92         -12.85          3.564          37.24          59.88         -10.38          108.5          41.18
    0.1847              -28.76          32.91          57.03          63.92         -12.85          3.561          37.21          59.88         -10.39          108.5           41.2
    0.2217              -28.77           32.9          57.03          63.91         -12.85          3.559          37.17          59.87         -10.41          108.5          41.22
    0.2586              -28.77           32.9          57.02          63.91         -12.85          3.557          37.14          59.86         -10.42          108.5          41.24
    0.2955              -28.78           32.9          57.02           63.9         -12.85          3.554           37.1          59.85         -10.44          108.5          41.26
    0.3325              -28.78           32.9          57.01          63.89         -12.84          3.552          37.05          59.84         -10.46          108.5          41.28
    0.3694              -28.79           32.9          57.01          63.89         -12.84          3.549          37.01          59.83         -10.48          108.5          41.31
    0.4064               -28.8           32.9           57.0          63.88         -12.84          3.546          36.96          59.82          -10.5          108.5          41.33
    0.4433               -28.8          32.89          56.99          63.87         -12.84          3.542          36.91          59.81         -10.52          108.5          41.36
    0.4803              -28.81          32.89          56.98          63.86         -12.84          3.538          36.85           59.8         -10.55          108.5          41.39
    0.5172              -28.82          32.89          56.98          63.85         -12.84          3.534          36.79          59.79         -10.57          108.4          41.42
    0.5541              -28.83          32.89          56.97          63.84         -12.84           3.53          36.72          59.77          -10.6          108.4          41.46
    0.5911              -28.84          32.88          56.96          63.83         -12.84          3.525          36.65          59.76         -10.63          108.4           41.5
     0.628              -28.85          32.88          56.95          63.82         -12.83           3.52          36.57          59.74         -10.67          108.4          41.54
     0.665              -28.86          32.88          56.94           63.8         -12.83          3.515          36.49          59.72          -10.7          108.4          41.59
    0.7019              -28.87          32.87          56.92          63.79         -12.83          3.509          36.39           59.7         -10.74          108.4          41.64
    0.7388              -28.88          32.87          56.91          63.77         -12.83          3.502          36.29          59.68         -10.79          108.4           41.7
    0.7758               -28.9          32.87           56.9          63.75         -12.83          3.495          36.18          59.65         -10.84          108.4          41.76
    0.8127              -28.91          32.86          56.88          63.73         -12.82          3.486          36.05          59.62         -10.89          108.4          41.83
    0.8497              -28.93          32.86          56.86          63.71         -12.82          3.477          35.91          59.59         -10.95          108.4           41.9
    0.8866              -28.95          32.85          56.84          63.69         -12.82          3.467          35.76          59.56         -11.02          108.4          41.99
    0.9236              -28.97          32.84          56.82          63.66         -12.81          3.456          35.58          59.52         -11.09          108.4          42.08
    0.9605               -29.0          32.84          56.79          63.63         -12.81          3.444          35.39          59.48         -11.18          108.4          42.19
    0.9974              -29.03          32.83          56.76          63.59          -12.8           3.43          35.17          59.43         -11.27          108.3           42.3
     1.034              -29.06          32.82          56.73          63.55          -12.8          3.414          34.93          59.38         -11.38          108.3          42.44
     1.071              -29.09          32.81          56.69          63.51         -12.79          3.396          34.65          59.32          -11.5          108.3          42.59
     1.108              -29.14           32.8          56.65          63.46         -12.79          3.375          34.33          59.25         -11.64          108.3          42.76
     1.145              -29.18          32.78           56.6           63.4         -12.78          3.351          33.97          59.17          -11.8          108.3          42.96
     1.182              -29.24          32.77          56.55          63.33         -12.77          3.324          33.54          59.08         -11.98          108.3          43.19
     1.219               -29.3          32.75          56.48          63.25         -12.76          3.292          33.05          58.97         -12.19          108.2          43.46
     1.256              -29.37          32.73          56.41          63.16         -12.75          3.255          32.48          58.85         -12.44          108.2          43.77
     1.293              -29.46           32.7          56.32          63.05         -12.73          3.211          31.81           58.7         -12.74          108.1          44.14
      1.33              -29.57          32.67          56.21          62.92         -12.71          3.159           31.0          58.52         -13.08          108.1          44.57
     1.367              -29.69          32.64          56.09          62.77         -12.69          3.096          30.04          58.31          -13.5          108.0           45.1
     1.404              -29.84          32.59          55.93          62.58         -12.67          3.021          28.87          58.06         -14.01          108.0          45.73
     1.441              -30.02          32.54          55.74          62.35         -12.64          2.928          27.45          57.75         -14.62          107.9           46.5
     1.478              -30.25          32.48          55.51          62.07          -12.6          2.814           25.7          57.36         -15.39          107.8          47.46
     1.515              -30.53          32.39          55.22          61.72         -12.55          2.672          23.51          56.89         -16.34          107.6          48.65
     1.552              -30.89          32.29          54.86          61.28         -12.49          2.493          20.75          56.28         -17.53          107.5          50.15
     1.589              -31.34          32.16           54.4          60.71         -12.42          2.266          17.24          55.52         -19.06          107.3          52.06
     1.625              -31.92          31.99           53.8          59.99         -12.32          1.974          12.75          54.54          -21.0          107.0           54.5
     1.662              -32.66          31.78          53.04          59.07         -12.19          1.601          6.992          53.28          -23.5          106.6          57.63
     1.699              -33.61           31.5          52.07          57.89         -12.03          1.123        -0.3656          51.67          -26.7          106.2          61.63
     1.736              -34.81          31.16          50.85           56.4         -11.83         0.5226         -9.617          49.65         -30.71          105.6          66.67
     1.773              -36.26          30.74          49.36          54.59         -11.59         -0.209         -20.89          47.19          -35.6          104.9           72.8
